<svg width="243" height="288" viewBox="0 0 243 288" fill="none" xmlns="http://www.w3.org/2000/svg">
<path d="M231.778 287.653H36.481C30.6472 287.653 25.9192 282.847 25.9192 276.916V11.0177C25.9192 5.08649 30.6472 0.280701 36.481 0.280701H231.778C237.612 0.280701 242.34 5.08649 242.34 11.0177V276.916C242.34 282.847 237.612 287.653 231.778 287.653Z" fill="#34345C"/>
<path d="M226.391 287.653H27.502C21.5667 287.653 16.7473 282.847 16.7473 276.916V11.0177C16.7473 5.08649 21.5565 0.280701 27.502 0.280701H226.391C232.326 0.280701 237.145 5.08649 237.145 11.0177V276.916C237.145 282.847 232.336 287.653 226.391 287.653Z" fill="#3F3B5C"/>
<path d="M216.448 273.276H37.4449C32.0981 273.276 27.7659 268.947 27.7659 263.604V24.2994C27.7659 18.9562 32.0981 14.627 37.4449 14.627H216.448C221.795 14.627 226.127 18.9562 226.127 24.2994V263.604C226.127 268.947 221.795 273.276 216.448 273.276Z" fill="#F7F2EB"/>
<path d="M183.768 51.1772H73.0061C70.3073 51.1772 68.1157 48.9872 68.1157 46.2903C68.1157 43.5934 70.3073 41.4034 73.0061 41.4034H183.768C186.467 41.4034 188.658 43.5934 188.658 46.2903C188.658 48.9872 186.467 51.1772 183.768 51.1772Z" fill="#3F3B5C"/>
<path d="M33.3055 56.6724H10.457C4.72465 56.6724 0.0778809 52.0288 0.0778809 46.3004C0.0778809 40.5721 4.72465 35.9285 10.457 35.9285H33.3055C39.0379 35.9285 43.6846 40.5721 43.6846 46.3004C43.6846 52.0288 39.0379 56.6724 33.3055 56.6724Z" fill="#D66B79"/>
<path d="M33.3055 105.501H10.457C4.72465 105.501 0.0778809 100.857 0.0778809 95.1287C0.0778809 89.4003 4.72465 84.7567 10.457 84.7567H33.3055C39.0379 84.7567 43.6846 89.4003 43.6846 95.1287C43.6846 100.857 39.0379 105.501 33.3055 105.501Z" fill="#D66B79"/>
<path d="M33.3055 154.339H10.457C4.72465 154.339 0.0778809 149.695 0.0778809 143.967C0.0778809 138.239 4.72465 133.595 10.457 133.595H33.3055C39.0379 133.595 43.6846 138.239 43.6846 143.967C43.6846 149.695 39.0379 154.339 33.3055 154.339Z" fill="#D66B79"/>
<path d="M33.3055 203.167H10.457C4.72465 203.167 0.0778809 198.524 0.0778809 192.795C0.0778809 187.067 4.72465 182.423 10.457 182.423H33.3055C39.0379 182.423 43.6846 187.067 43.6846 192.795C43.6846 198.524 39.0379 203.167 33.3055 203.167Z" fill="#D66B79"/>
<path d="M33.3055 252.005H10.457C4.72465 252.005 0.0778809 247.362 0.0778809 241.633C0.0778809 235.905 4.72465 231.261 10.457 231.261H33.3055C39.0379 231.261 43.6846 235.905 43.6846 241.633C43.6846 247.362 39.0379 252.005 33.3055 252.005Z" fill="#D66B79"/>
<path d="M159.012 80.9141H71.8495C69.729 80.9141 68.0042 78.7242 68.0042 76.0273C68.0042 73.3304 69.729 71.1404 71.8495 71.1404H159.012C161.133 71.1404 162.858 73.3304 162.858 76.0273C162.858 78.7242 161.133 80.9141 159.012 80.9141Z" fill="#3F3B5C"/>
<path d="M183.545 110.651H72.7829C70.0841 110.651 67.8926 108.461 67.8926 105.764C67.8926 103.067 70.0841 100.877 72.7829 100.877H183.545C186.244 100.877 188.435 103.067 188.435 105.764C188.435 108.461 186.244 110.651 183.545 110.651Z" fill="#3F3B5C"/>
<path d="M170.092 140.378H70.8653C68.4506 140.378 66.4924 138.188 66.4924 135.491C66.4924 132.794 68.4506 130.604 70.8653 130.604H170.092C172.506 130.604 174.464 132.794 174.464 135.491C174.464 138.188 172.506 140.378 170.092 140.378Z" fill="#3F3B5C"/>
<path d="M182.835 170.115H72.0726C69.3738 170.115 67.1824 167.925 67.1824 165.228C67.1824 162.531 69.3738 160.341 72.0726 160.341H182.835C185.534 160.341 187.725 162.531 187.725 165.228C187.725 167.925 185.534 170.115 182.835 170.115Z" fill="#3F3B5C"/>
<path d="M137.513 199.852H68.8767C67.2026 199.852 65.8533 197.662 65.8533 194.965C65.8533 192.268 67.2128 190.078 68.8767 190.078H137.513C139.187 190.078 140.537 192.268 140.537 194.965C140.537 197.662 139.177 199.852 137.513 199.852Z" fill="#3F3B5C"/>
<path d="M183.362 229.589H72.6002C69.9014 229.589 67.71 227.399 67.71 224.702C67.71 222.005 69.9014 219.815 72.6002 219.815H183.362C186.061 219.815 188.253 222.005 188.253 224.702C188.253 227.399 186.061 229.589 183.362 229.589Z" fill="#3F3B5C"/>
<path d="M33.3462 133.595C39.0786 133.595 43.7254 138.239 43.7254 143.967C43.7254 149.695 39.0786 154.339 33.3462 154.339C40.6005 148.337 40.8845 141.422 33.3462 133.585V133.595Z" fill="#BC5E6E"/>
<path d="M33.2649 84.7567C38.9973 84.7567 43.6441 89.4003 43.6441 95.1287C43.6441 100.857 38.9973 105.501 33.2649 105.501C40.5192 99.4985 40.8032 92.5838 33.2649 84.7466V84.7567Z" fill="#BC5E6E"/>
<path d="M33.2852 35.9184C39.0176 35.9184 43.6643 40.5619 43.6643 46.2903C43.6643 52.0187 39.0176 56.6623 33.2852 56.6623C40.5394 50.6602 40.8235 43.7455 33.2852 35.9083V35.9184Z" fill="#BC5E6E"/>
<path d="M33.3462 182.403C39.0786 182.403 43.7254 187.046 43.7254 192.775C43.7254 198.503 39.0786 203.147 33.3462 203.147C40.6005 197.145 40.8845 190.23 33.3462 182.393V182.403Z" fill="#BC5E6E"/>
<path d="M33.3257 231.241C39.0581 231.241 43.7049 235.885 43.7049 241.613C43.7049 247.342 39.0581 251.985 33.3257 251.985C40.58 245.983 40.864 239.068 33.3257 231.231V231.241Z" fill="#BC5E6E"/>
</svg>
