<svg width="957" height="285" viewBox="0 0 957 285" fill="none" xmlns="http://www.w3.org/2000/svg">
<path d="M923.501 0H33.1465C14.8406 0 0 14.8406 0 33.1465V167.965C0 186.27 14.8406 201.111 33.1465 201.111H66.2929V273.877C66.2929 283.72 78.194 288.651 85.154 281.689L165.732 201.111H923.5C941.806 201.111 956.646 186.27 956.646 167.965V33.1465C956.649 14.8406 941.809 0 923.501 0Z" fill="#ECEAEC"/>
<path d="M22.0976 90.6216V1.64648C9.25328 6.21292 0 18.3522 0 32.7633L1.90735e-06 167.965C1.90735e-06 186.271 14.8406 201.111 33.1465 201.111H66.2929V273.877C66.2929 283.72 78.194 288.651 85.154 281.689L165.732 201.111H924C938.411 201.111 950.55 191.858 955.117 179.014H110.489C61.6716 179.014 22.0976 139.44 22.0976 90.6216Z" fill="#DAD8DB"/>
</svg>
