<svg width="318" height="275" viewBox="0 0 318 275" fill="none" xmlns="http://www.w3.org/2000/svg">
<path d="M275.585 274.016H42.8494C35.4125 274.016 29.3757 267.994 29.3757 260.552V232.964H289.048V260.562C289.048 267.994 283.011 274.006 275.575 274.006L275.585 274.016Z" fill="#3F3B5C"/>
<path d="M289.048 232.995V260.562C289.048 267.994 283.032 274.036 275.595 274.057H261.411C268.848 274.036 274.865 268.004 274.865 260.562V232.995H289.048Z" fill="#383656"/>
<path d="M314.311 93.1409L312.708 105.034C311.937 110.853 306.59 114.939 300.767 114.159C300.401 114.108 300.046 114.047 299.691 113.956L247.237 101.12C242.022 99.9035 238.542 94.9862 239.131 89.6633L240.632 75.2967L314.311 93.1308V93.1409Z" fill="#3F3B5C"/>
<path d="M317.507 69.4974L314.301 93.1308L240.632 75.317L241.85 63.8603C242.57 56.7124 237.802 50.1527 230.781 48.6217C183.795 38.0064 135.034 38.0064 88.0491 48.6217C81.018 50.1527 76.2596 56.7124 76.98 63.8603L78.1974 75.317L4.52854 93.1308L1.32242 69.4974C-0.818349 53.5289 7.46069 37.9659 21.9084 30.8181C63.3845 10.0945 115.97 0.827671 159.435 0.776978C202.9 0.827671 255.496 10.0945 296.921 30.8181C311.369 37.9659 319.648 53.5289 317.507 69.4974Z" fill="#779FBF"/>
<path d="M317.507 69.4974L314.301 93.1308L303.273 90.4643L304.977 77.9936C307.118 62.0251 298.839 46.4621 284.391 39.3143C242.966 18.5907 190.37 9.32391 146.905 9.27322C104.313 9.32391 52.9345 18.2562 11.854 38.1484C14.7659 35.1575 18.1647 32.6734 21.9086 30.818C63.3847 10.0945 115.971 0.827641 159.435 0.776947C202.9 0.827641 255.496 10.0945 296.922 30.818C311.369 37.9659 319.648 53.5289 317.507 69.4974Z" fill="#5D829B"/>
<path d="M4.51855 93.1409L6.12168 105.034C6.89276 110.853 12.2395 114.939 18.0632 114.159C18.4285 114.108 18.7836 114.047 19.1387 113.956L71.5825 101.12C76.7974 99.9035 80.2775 94.9862 79.689 89.6633L78.1874 75.2967L4.51855 93.1308V93.1409Z" fill="#3F3B5C"/>
<path d="M130.57 76.4627V64.5294C130.57 61.437 128.054 58.9227 124.96 58.9227H115.088C111.993 58.9227 109.477 61.437 109.477 64.5294V76.4627H130.57Z" fill="#779FBF"/>
<path d="M208.947 76.4627V64.5294C208.947 61.437 206.431 58.9227 203.336 58.9227H193.464C190.37 58.9227 187.854 61.437 187.854 64.5294V76.4627H208.947Z" fill="#779FBF"/>
<path d="M289.048 232.964V181.368C289.16 171.544 283.661 162.5 274.885 158.069C246.72 144.413 232.1 117.342 228.214 86.1553C227.351 79.5449 221.7 74.6175 215.034 74.6377H103.4C96.7341 74.6073 91.0827 79.5449 90.2203 86.1553C86.3345 117.342 71.6839 144.413 43.5495 158.069C34.7632 162.5 29.2743 171.534 29.3859 181.368V232.964H289.058H289.048Z" fill="#779FBF"/>
<path d="M289.048 181.358V232.995H274.672V181.358C274.793 171.524 269.284 162.48 260.488 158.059C232.374 144.423 217.703 117.342 213.817 86.135C212.954 79.5347 207.313 74.6073 200.658 74.6377H215.034C221.69 74.6073 227.331 79.5347 228.194 86.135C232.079 117.342 246.74 144.423 274.864 158.059C283.661 162.48 289.16 171.513 289.048 181.358Z" fill="#5D829B"/>
<path d="M159.212 198.655C184.001 198.655 204.097 178.573 204.097 153.801C204.097 129.029 184.001 108.947 159.212 108.947C134.423 108.947 114.327 129.029 114.327 153.801C114.327 178.573 134.423 198.655 159.212 198.655Z" fill="#F7F2EB"/>
<path d="M159.212 201.088C133.076 201.088 111.902 179.918 111.902 153.801C111.902 127.684 133.086 106.524 159.222 106.524C185.348 106.524 206.532 127.694 206.532 153.801C206.502 179.908 185.337 201.058 159.212 201.078V201.088ZM159.212 111.37C135.765 111.37 116.752 130.37 116.762 153.801C116.762 177.232 135.775 196.232 159.222 196.221C182.669 196.221 201.672 177.221 201.672 153.801C201.642 130.38 182.649 111.391 159.212 111.37Z" fill="#3F3B5C"/>
<path d="M159.212 125.575C157.873 125.575 156.787 124.49 156.787 123.152V120.039C156.787 118.701 157.873 117.616 159.212 117.616C160.551 117.616 161.637 118.701 161.637 120.039V123.152C161.637 124.49 160.551 125.575 159.212 125.575Z" fill="#3F3B5C"/>
<path d="M137.52 134.548C136.871 134.548 136.262 134.294 135.805 133.838L133.604 131.638C132.67 130.675 132.701 129.133 133.665 128.211C134.608 127.298 136.1 127.298 137.043 128.211L139.245 130.411C140.199 131.354 140.199 132.895 139.245 133.838C138.788 134.294 138.169 134.548 137.52 134.548Z" fill="#3F3B5C"/>
<path d="M128.531 156.224H125.416C124.077 156.224 122.991 155.139 122.991 153.801C122.991 152.463 124.077 151.378 125.416 151.378H128.531C129.87 151.378 130.956 152.463 130.956 153.801C130.956 155.139 129.87 156.224 128.531 156.224Z" fill="#3F3B5C"/>
<path d="M135.318 180.111C133.979 180.111 132.893 179.006 132.904 177.668C132.904 177.039 133.157 176.431 133.593 175.985L135.795 173.784C136.759 172.852 138.301 172.882 139.224 173.845C140.138 174.788 140.138 176.279 139.224 177.221L137.023 179.422C136.566 179.868 135.947 180.121 135.308 180.111H135.318Z" fill="#3F3B5C"/>
<path d="M159.212 190.006C157.873 190.006 156.787 188.922 156.787 187.583V184.471C156.787 183.132 157.873 182.047 159.212 182.047C160.551 182.047 161.637 183.132 161.637 184.471V187.583C161.637 188.922 160.551 190.006 159.212 190.006Z" fill="#3F3B5C"/>
<path d="M183.126 180.111C182.477 180.111 181.868 179.858 181.411 179.401L179.21 177.201C178.276 176.238 178.307 174.697 179.27 173.774C180.214 172.862 181.705 172.862 182.649 173.774L184.851 175.974C185.804 176.917 185.804 178.458 184.851 179.401C184.394 179.858 183.775 180.111 183.126 180.111Z" fill="#3F3B5C"/>
<path d="M193.008 156.224H189.893C188.554 156.224 187.468 155.139 187.468 153.801C187.468 152.463 188.554 151.378 189.893 151.378H193.008C194.347 151.378 195.432 152.463 195.432 153.801C195.432 155.139 194.347 156.224 193.008 156.224Z" fill="#3F3B5C"/>
<path d="M180.904 134.547C179.564 134.547 178.469 133.463 178.469 132.124C178.469 131.475 178.722 130.857 179.179 130.401L181.381 128.201C182.344 127.268 183.887 127.298 184.81 128.261C185.723 129.204 185.723 130.695 184.81 131.638L182.608 133.838C182.152 134.294 181.533 134.547 180.893 134.547H180.904Z" fill="#3F3B5C"/>
<path d="M60.5742 60.4131C59.0118 60.4131 57.6827 59.2674 57.4595 57.7264L57.0536 55.0497C55.7956 46.3507 61.2642 38.0876 69.7664 35.8368C74.0479 34.6911 78.3396 33.6265 82.6414 32.6532C84.3459 32.2679 86.0301 33.3325 86.4156 35.0358C86.8012 36.7392 85.7359 38.4222 84.0314 38.8074C79.8209 39.7807 75.6104 40.8251 71.41 41.9403C66.0023 43.3597 62.5223 48.6116 63.3137 54.1372L63.7092 56.7935C63.973 58.507 62.7961 60.1191 61.0713 60.3827C60.909 60.403 60.7467 60.4232 60.5742 60.4232H60.5641L60.5742 60.4131Z" fill="white"/>
<path d="M94.9077 36.4653C93.1626 36.4653 91.7422 35.0662 91.7422 33.3223C91.7422 31.8015 92.8177 30.4936 94.3193 30.2097L98.2762 29.4797C99.9908 29.1756 101.634 30.3212 101.939 32.0347C102.243 33.7481 101.097 35.3906 99.382 35.6948L95.4962 36.4045C95.3034 36.445 95.1005 36.4653 94.9077 36.4653Z" fill="white"/>
</svg>
