<svg width="1920" height="453" viewBox="0 0 1920 453" fill="none" xmlns="http://www.w3.org/2000/svg">
<path d="M1888.58 437H3.4214C-13.928 437 -28.0002 423.039 -28.0002 405.823V31.7242C-28.0002 14.5086 -13.9381 0.547546 3.4214 0.547546H1888.59C1905.94 0.547546 1920.01 14.5086 1920.01 31.7242V405.823C1920.01 423.039 1905.95 437 1888.59 437H1888.58Z" fill="#DF8854"/>
<path d="M228.781 388.426C122.42 388.426 36.1979 301.696 36.1979 194.713V0.999969H4.09895C-13.6244 0.999969 -28 15.4583 -28 33.2872V420.713C-28 438.542 -13.6348 453 4.09895 453H1929.9C1947.62 453 1962 438.542 1962 420.713V388.426H228.781Z" fill="#C6774F"/>
</svg>
