<svg width="582" height="526" viewBox="0 0 582 526" fill="none" xmlns="http://www.w3.org/2000/svg">
<path d="M-52.5592 -279.789V473.171H555.518V-279.789C555.518 -287.081 549.595 -293 542.298 -293H-39.3388C-46.6365 -293 -52.5592 -287.081 -52.5592 -279.789Z" fill="#DF8854"/>
<path d="M-53 -279.792V473H233C22.0934 182.627 30.6299 17.6582 233 -279.792C233 -287.083 230.214 -293 226.782 -293H-46.782C-50.2143 -293 -53 -287.083 -53 -279.792Z" fill="#C6774F"/>
<path d="M502.636 433.537H0.307174C-7.00559 433.537 -12.9132 427.634 -12.9132 420.326V-240.155C-12.9132 -247.463 -7.00559 -253.367 0.307174 -253.367H502.621C509.934 -253.367 515.842 -247.463 515.842 -240.155V420.326C515.842 427.634 509.934 433.537 502.621 433.537H502.636Z" fill="#F7F2EB"/>
<path d="M489.431 -226.959H13.5427V407.115H489.431V-226.959Z" fill="#779FBF"/>
<path d="M389.137 182.556L393.005 178.691C398.172 173.527 398.172 165.177 393.005 160.014C387.838 154.85 379.483 154.85 374.315 160.014L370.447 163.879L366.579 160.014C361.412 154.85 353.057 154.85 347.89 160.014C342.722 165.177 342.722 173.527 347.89 178.691L351.758 182.556L347.89 186.421C342.722 191.585 342.722 199.934 347.89 205.098C350.473 207.68 353.858 208.963 357.242 208.963C360.627 208.963 364.011 207.68 366.595 205.098L370.462 201.233L374.33 205.098C376.914 207.68 380.298 208.963 383.683 208.963C387.067 208.963 390.452 207.68 393.035 205.098C398.203 199.934 398.203 191.585 393.035 186.421L389.167 182.556H389.137Z" fill="#F7F2EB"/>
<path opacity="0.2" d="M238.818 408H14V-227H270C119.962 9.15178 113.256 220.158 238.818 408Z" fill="#3F3B5C"/>
<path d="M185.377 129.711H172.157V116.5C172.157 109.192 166.249 103.289 158.937 103.289C151.624 103.289 145.716 109.192 145.716 116.5V129.711H132.496C125.183 129.711 119.276 135.615 119.276 142.922C119.276 150.23 125.183 156.133 132.496 156.133H145.716V169.345C145.716 176.652 151.624 182.556 158.937 182.556C166.249 182.556 172.157 176.652 172.157 169.345V156.133H185.377C192.69 156.133 198.598 150.23 198.598 142.922C198.598 135.615 192.69 129.711 185.377 129.711Z" fill="#F7F2EB"/>
<path d="M159.073 37.2483C151.76 37.2483 145.792 31.3448 145.792 24.0371C145.792 16.7295 151.639 10.826 158.952 10.826H159.088C166.401 10.826 172.308 16.7295 172.308 24.0371C172.308 31.3448 166.401 37.2483 159.088 37.2483H159.073Z" fill="#D2F0FF"/>
<path d="M330.786 116.5C323.474 116.5 317.506 110.597 317.506 103.289C317.506 95.9813 323.353 90.0778 330.666 90.0778H330.802C338.114 90.0778 344.022 95.9813 344.022 103.289C344.022 110.597 338.114 116.5 330.802 116.5H330.786Z" fill="#D2F0FF"/>
<path d="M185.378 275.019C178.065 275.019 172.097 269.115 172.097 261.807C172.097 254.5 177.944 248.596 185.257 248.596H185.393C192.705 248.596 198.613 254.5 198.613 261.807C198.613 269.115 192.705 275.019 185.393 275.019H185.378Z" fill="#D2F0FF"/>
<path d="M410.094 50.4594C402.781 50.4594 396.813 44.5559 396.813 37.2483C396.813 29.9406 402.66 24.0371 409.973 24.0371H410.109C417.421 24.0371 423.329 29.9406 423.329 37.2483C423.329 44.5559 417.421 50.4594 410.109 50.4594H410.094Z" fill="#D2F0FF"/>
<path d="M449.755 301.441C442.442 301.441 436.474 295.537 436.474 288.23C436.474 280.922 442.321 275.019 449.634 275.019H449.77C457.083 275.019 462.99 280.922 462.99 288.23C462.99 295.537 457.083 301.441 449.77 301.441H449.755Z" fill="#D2F0FF"/>
<path d="M66.53 195.752C59.2172 195.752 53.2491 189.848 53.2491 182.541C53.2491 175.233 59.0963 169.329 66.4091 169.329H66.5451C73.8578 169.329 79.7655 175.233 79.7655 182.541C79.7655 189.848 73.8578 195.752 66.5451 195.752H66.53Z" fill="#D2F0FF"/>
<path d="M317.702 301.441C310.389 301.441 304.421 295.537 304.421 288.23C304.421 280.922 310.268 275.019 317.581 275.019H317.717C325.03 275.019 330.938 280.922 330.938 288.23C330.938 295.537 325.03 301.441 317.717 301.441H317.702Z" fill="#92CBEA"/>
<path d="M568.723 526H-65.7796C-73.0773 526 -79 520.082 -79 512.789V486.367C-79 479.074 -73.0773 473.156 -65.7796 473.156H568.723C576.021 473.156 581.943 479.074 581.943 486.367V512.789C581.943 520.082 576.021 526 568.723 526Z" fill="#DB7C5A"/>
<path d="M568.723 499.578H-65.7796C-73.0773 499.578 -79 505.496 -79 512.789C-79 520.082 -73.0773 526 -65.7796 526H568.723C576.021 526 581.943 520.082 581.943 512.789C581.943 505.496 576.021 499.578 568.723 499.578Z" fill="#DF8854"/>
<path d="M491.38 347.506L464.305 361.457C446.219 370.728 417.965 371.936 397.432 364.205L384.59 359.449C365.099 352.202 338.598 352.806 320.392 360.914C294.6 372.434 255.03 368.282 239.86 352.443L232.034 344.275C216.154 327.637 173.668 324.043 148.587 337.209L12.8477 408.021H491.395V347.506H491.38Z" fill="#F7F2EB"/>
<path d="M489.431 -10.8855H280.337C280.337 -10.8855 280.232 -10.8704 280.171 -10.8704C274.007 -10.8704 269.006 -15.7774 269.006 -21.847V-227.548H250.981V-21.8319C250.981 -15.7774 245.98 -10.8553 239.815 -10.8553C239.755 -10.8553 239.709 -10.8704 239.649 -10.8704H13.3462V6.84003H239.83C245.995 6.84003 250.996 11.7471 250.996 17.8166V17.8317V215.621C250.996 217.131 250.678 218.581 250.119 219.894C248.427 223.835 244.454 226.598 239.83 226.598H13.3462V244.308H239.83C245.995 244.308 250.996 249.23 250.996 255.285V255.3V421.338H269.021V255.3C269.021 249.23 274.022 244.308 280.186 244.308H489.446V226.598H280.186C274.022 226.598 269.021 221.691 269.021 215.621V17.8317C269.021 11.7621 274.022 6.85515 280.186 6.85515H489.446V-10.8553L489.431 -10.8855Z" fill="#DF8854"/>
<path d="M13.3462 -64.938H252.235V21.8025H13.3462V-64.938Z" fill="#76BAA7"/>
<path d="M13.3462 21.8176H252.235V98.714H13.3462V21.8176Z" fill="#6DAA97"/>
<path d="M29.543 98.3819V244.097L17.6824 270.383C16.9119 272.105 16.9723 274.173 17.8486 275.819C18.7401 277.48 20.3114 278.491 22.0036 278.491H47.5832C49.3056 278.491 50.892 277.449 51.7684 275.774C52.6447 274.082 52.6749 271.999 51.859 270.263L39.2883 244.021V98.3819M34.5441 257.308L39.3639 267.379H29.9963L34.5441 257.308Z" fill="#426370"/>
</svg>
